<?xml version="1.0" standalone="no"?>
<!DOCTYPE svg PUBLIC "-//W3C//DTD SVG 20010904//EN"
 "http://www.w3.org/TR/2001/REC-SVG-20010904/DTD/svg10.dtd">
<svg version="1.0" xmlns="http://www.w3.org/2000/svg"
 width="512.000000pt" height="512.000000pt" viewBox="0 0 512.000000 512.000000"
 preserveAspectRatio="xMidYMid meet">

<g transform="translate(0.000000,512.000000) scale(0.100000,-0.100000)"
fill="#000000" stroke="none">
<path d="M1040 3680 l0 -150 -247 -2 -248 -3 -3 -347 -2 -348 -95 0 -95 0 0
-273 0 -272 95 -95 95 -95 0 -250 0 -250 768 -768 c422 -423 774 -772 783
-777 68 -38 568 -59 769 -31 334 45 610 131 880 272 636 334 1100 910 1290
1604 71 259 101 564 81 827 -6 90 -18 196 -25 236 l-12 73 -250 250 -249 249
-100 0 -100 0 -150 150 -150 150 -252 0 -253 0 0 -495 0 -495 -512 -2 -513 -3
-500 498 -500 497 -253 0 -252 0 0 -150z"/>
</g>
</svg>
